PathFileType	4	(X/Y/Z)	CPRIT_Patient3_L_HipIso_Processed.TRC
DataRate	CameraRate	NumFrames	NumMarkers	Units	OrigDataRate	OrigDataStartFrame	OrigNumFrames
150.114591291062	150.114591291062	4	39	m	150.114591291062	164	       1311
Frame#	Time	R.Heel			R.Midfoot.Superior			R.Midfoot.Lateral			R.Toe			L.Heel			L.Midfoot.Superior			L.Midfoot.Lateral			L.Toe			R.Shank.Superior			R.Shank.Inferior			R.Shank.Lateral			R.Shank.Posterior			L.Shank.Superior			L.Shank.Inferior			L.Shank.Posterior			L.Shank.Lateral			R.Patella			L.Patella			R.Thigh.Superior			R.Thigh.Lateral			R.Thigh.Inferior			L.Thigh.Superior			L.Thigh.Inferior			L.Thigh.Lateral			L.Asis			R.Asis			Sacral			R.Shoulder			L.Shoulder			C7			J.Notch			Sternum			Thoracic			L.Elbow			L.Wrist			R.Elbow			R.Wrist			R.PSIS			L.PSIS			
		X1	Y1	Z1	X2	Y2	Z2	X3	Y3	Z3	X4	Y4	Z4	X5	Y5	Z5	X6	Y6	Z6	X7	Y7	Z7	X8	Y8	Z8	X9	Y9	Z9	X10	Y10	Z10	X11	Y11	Z11	X12	Y12	Z12	X13	Y13	Z13	X14	Y14	Z14	X15	Y15	Z15	X16	Y16	Z16	X17	Y17	Z17	X18	Y18	Z18	X19	Y19	Z19	X20	Y20	Z20	X21	Y21	Z21	X22	Y22	Z22	X23	Y23	Z23	X24	Y24	Z24	X25	Y25	Z25	X26	Y26	Z26	X27	Y27	Z27	X28	Y28	Z28	X29	Y29	Z29	X30	Y30	Z30	X31	Y31	Z31	X32	Y32	Z32	X33	Y33	Z33	X34	Y34	Z34	X35	Y35	Z35	X36	Y36	Z36	X37	Y37	Z37	X38	Y38	Z38	X39	Y39	Z39	

164	1.085837150127	0.872774747652	0.049172906955	0.147385432770	1.041528166241	0.099349687152	0.132326285074	0.958162967809	0.037678907595	0.190323688821	1.158599787528	0.056620176913	0.120072238256	1.316264832927	0.239486818363	-0.306083122147	1.396164153486	0.387640250570	-0.368215675937	1.352287888179	0.279216470988	-0.388384814315	1.498467763928	0.428650068520	-0.423708756267	1.002303033669	0.362355684797	0.154219718221	0.995026812944	0.241393063289	0.154487335159	0.938506087203	0.296304835775	0.222771448813	0.864859623648	0.356945272358	0.179106654566	1.216511524841	0.579380127018	-0.272482226727	1.279459669775	0.471009434171	-0.304272450794	1.126185450768	0.472336797454	-0.236737237186	1.188540139251	0.473349467839	-0.323358846826	1.019879412713	0.479964927893	0.126150526902	1.171583155670	0.684230300755	-0.233283889811	1.063756820447	0.787883974895	0.119589105088	1.001337032200	0.715346106493	0.201285758980	1.045452744586	0.627046190437	0.103688169170	0.997002310833	0.905188253906	-0.146253954015	1.090412384177	0.797935574459	-0.184253921073	0.950165150460	0.805444231595	-0.200435294292	0.929274936137	0.981897586682	-0.095102447459	1.043918024658	0.946877864399	0.113407804431	0.824324187135	0.992711572066	0.104515827848	1.032131632931	1.448421760663	0.184812454433	0.931958757452	1.431767052153	-0.124809314720	0.942484306446	1.483560129256	0.051862319729	1.041899160791	1.367430204674	0.009670706295	1.062343668113	1.182794693566	-0.007476292812	0.844480306109	1.343507876272	0.097415246075	0.858195851418	1.161272592306	-0.283131686472	0.960614578540	0.988462356270	-0.438376020753	0.956283045916	1.205583267633	0.409604589799	1.088084328806	0.988748433610	0.421526535702	0.841913535528	0.993130790938	0.133965707710	0.805393078841	0.993629242939	0.065581566518	
165	1.092498727735	0.872772234052	0.049168565354	0.147391805588	1.041516539970	0.099357574917	0.132352518111	0.958159549336	0.037672556048	0.190331024357	1.158589494312	0.056640463313	0.120082083961	1.308584698846	0.233363953227	-0.302553117766	1.390215209883	0.380259015943	-0.365433527202	1.345048813688	0.272213491596	-0.385045893761	1.493003649104	0.419771558557	-0.421121140294	1.002058673422	0.362374946903	0.154455076781	0.994899480775	0.241418675539	0.154650513297	0.938340594004	0.296227582164	0.222975165903	0.864636097847	0.356859263299	0.179395090855	1.212857932312	0.574521084717	-0.270665413732	1.274539700903	0.465276276122	-0.301892205994	1.121254988200	0.468710424475	-0.234452823987	1.183686273770	0.468574957355	-0.321017458256	1.019526571787	0.479904042511	0.126387061807	1.169154969597	0.680099420357	-0.232019037211	1.063613284856	0.787598762637	0.119685590645	1.001243800033	0.715270635696	0.201594790894	1.045072977615	0.626863445005	0.103835926673	0.996695382551	0.903515431122	-0.145937294583	1.089180576441	0.794983791579	-0.183475474292	0.949040278415	0.803938818037	-0.199616578218	0.929408391622	0.981953091862	-0.095031148347	1.044083894671	0.946548820845	0.113397727653	0.824605465104	0.993198406592	0.104653961157	1.032246974024	1.448545822197	0.184788156637	0.932152303890	1.431794712155	-0.124863763345	0.942631844326	1.483640153280	0.051790073841	1.042098925283	1.367594082521	0.009653593156	1.062767792822	1.182917175188	-0.007495950516	0.844749167378	1.343489924183	0.097332025160	0.858263612202	1.161270527629	-0.283069473492	0.960594548624	0.988462026151	-0.438375377148	0.956358193379	1.205617613391	0.409500148163	1.088108904397	0.988752909164	0.421508175684	0.842289692341	0.993508879569	0.133942681803	0.805675572147	0.994116800470	0.065687413700	
166	1.099160305344	0.872770243636	0.049164160133	0.147398681245	1.041504763183	0.099365324484	0.132379117293	0.958156082191	0.037666183103	0.190338397771	1.158578901657	0.056660977366	0.120091699415	1.300735363159	0.227262070574	-0.298943466713	1.384100407263	0.372860924184	-0.362570719012	1.337638066912	0.265217241233	-0.381623104694	1.487363316793	0.410853185638	-0.418447528940	1.001814128093	0.362394322894	0.154688934693	0.994771963233	0.241444837279	0.154812717393	0.938178175723	0.296151662801	0.223180908967	0.864414895968	0.356774713128	0.179686942384	1.209103428552	0.569648648415	-0.268798789235	1.269491387845	0.459532463998	-0.299446049905	1.116221000778	0.465103963399	-0.232118140082	1.178717805225	0.463803973452	-0.318618329776	1.019174197426	0.479840613311	0.126620584839	1.166649261048	0.675947426466	-0.230713728425	1.063473274921	0.787309138715	0.119780038420	1.001156850387	0.715195205305	0.201906020243	1.044700295285	0.626679858620	0.103988171000	0.996360915065	0.901827936660	-0.145609731697	1.087900546679	0.792011778351	-0.182674715424	0.947883451729	0.802426732553	-0.198780516285	0.929536103292	0.981981237729	-0.094959817480	1.044256307930	0.946213002528	0.113381486091	0.824898313837	0.993692795831	0.104795962528	1.032379398897	1.448669498341	0.184755653006	0.932352411256	1.431820691666	-0.124921066268	0.942792459473	1.483719223921	0.051712177342	1.042310865292	1.367756029599	0.009628770771	1.063201015344	1.183037148731	-0.007524071920	0.845029959920	1.343473251073	0.097251353312	0.858330145803	1.161266470024	-0.283003893925	0.960572449711	0.988461158010	-0.438372785798	0.956447895010	1.205658303588	0.409393327338	1.088135401824	0.988757513064	0.421489987893	0.842679519412	0.993893489940	0.133921547554	0.805969410210	0.994613234582	0.065799173446	
167	1.105821882952	0.872768848331	0.049159673594	0.147406097063	1.041492902883	0.099372919327	0.132405988503	0.958152572252	0.037659800252	0.190345794898	1.158568045679	0.056681659792	0.120101020737	1.292724468687	0.221193032780	-0.295257433330	1.377824808455	0.365458542229	-0.359629997090	1.330062451736	0.258240614075	-0.378119566238	1.481550199013	0.401909266390	-0.415690061175	1.001570369032	0.362413664214	0.154920601046	0.994644546507	0.241471322619	0.154973238985	0.938019738516	0.296077245910	0.223388290339	0.864197054080	0.356691922768	0.179981704236	1.205251000012	0.564770890424	-0.266884108378	1.264318992565	0.453787870871	-0.296936222176	1.111088871371	0.461524627977	-0.229735432429	1.173639288782	0.459045124908	-0.316163655801	1.018823797705	0.479774703167	0.126850489599	1.164067593245	0.671780998011	-0.229369004680	1.063337255687	0.787015759412	0.119872471263	1.001076899829	0.715119917777	0.202218824738	1.044335938221	0.626495857153	0.104144190919	0.995998468002	0.900128009858	-0.145271815030	1.086572673252	0.789023916415	-0.181852585935	0.946695273033	0.800910196746	-0.197927888171	0.929657103198	0.981979687091	-0.094888586027	1.044435034456	0.945871031910	0.113358907321	0.825202591685	0.994193781934	0.104941850243	1.032529087144	1.448792335095	0.184715138712	0.932558894884	1.431844916514	-0.124981020533	0.942966227368	1.483797139650	0.051628909574	1.042534750752	1.367915674265	0.009596381307	1.063642247601	1.183154236492	-0.007560688447	0.845322402754	1.343457915883	0.097173544869	0.858395489545	1.161260334276	-0.282934671726	0.960548242138	0.988459735680	-0.438368099950	0.956552393561	1.205705409514	0.409284830351	1.088163878868	0.988762218183	0.421472064956	0.843082548690	0.994284234897	0.133903606638	0.806274270566	0.995117683637	0.065917267698	
